<svg id="Layer_1" data-name="Layer 1" xmlns="http://www.w3.org/2000/svg" viewBox="0 0 183.8 116.02"><defs><style>.cls-1{font-size:18px;font-family:Cocon-Regular, Cocon;}.cls-1,.cls-3{fill:#f1f2f2;}.cls-2{fill:#de7026;}</style></defs><text class="cls-1" transform="translate(14.06 85.03)">pointex<tspan class="cls-2" x="66.19" y="0">solutions</tspan></text><path class="cls-3" d="M59.89,69.26s2.29-7.11,10.36-18.59c6.64-9.44,17.52-14.3,17.52-14.3L64.28,13.2s-5.05,1.6-10,8.3A47.89,47.89,0,0,0,48.31,32s2.23-3.38,8.77-9.08a84.08,84.08,0,0,1,7-5.05L80.25,35.12A49.15,49.15,0,0,0,68.87,47.44,71.44,71.44,0,0,0,59.89,69.26Z"/><path class="cls-2" d="M72.27,17.11a24.24,24.24,0,0,1,4-1.76c1.76-.56,4.27-1,4.27-1l25.05,26.15S95.36,41.62,81.5,49.53,63,66.6,63,66.6s6-12.22,15-18.79A75.6,75.6,0,0,1,96.85,38.1l-18-19.42-3.79.86Z"/><path class="cls-3" d="M93.72,24.47l5.17-.94,17.38,20.83s-16.86.92-26.07,4.7c-8.63,3.54-20,13.15-20,13.15S80.44,54.54,92,51.56c12.8-3.29,34.29-3,34.29-3L100.77,19.15s-3.52.43-5.33.82a46.37,46.37,0,0,0-4.54,1.69Z"/><path class="cls-3" d="M75,62.21S80.12,60.32,93,58.9c13.27-1.46,27.38.75,27.38.75l-8-9h-5.53l3.44,3.86s-13.58.88-20.35,2.5A116.88,116.88,0,0,0,75,62.21Z"/><path class="cls-2" d="M18.39,92.29h2.79v.93H18.39Zm.59-.76a1.59,1.59,0,0,1,.35-1.11,1.36,1.36,0,0,1,1.05-.37h.8v1H20.4a.27.27,0,0,0-.24.12.57.57,0,0,0-.08.31v6.34H19Z"/><path class="cls-2" d="M28.13,97.66a1.87,1.87,0,0,1-.79-.83,3,3,0,0,1-.27-1.32v-.9a2.87,2.87,0,0,1,.27-1.3,1.84,1.84,0,0,1,.79-.82,2.89,2.89,0,0,1,2.48,0,1.9,1.9,0,0,1,.79.82,2.87,2.87,0,0,1,.27,1.3v.92a2.87,2.87,0,0,1-.27,1.3,1.92,1.92,0,0,1-.79.83,2.89,2.89,0,0,1-2.48,0Zm2.13-1.12a1.49,1.49,0,0,0,.31-1v-.92a1.47,1.47,0,0,0-.31-1,1.15,1.15,0,0,0-.89-.35,1.14,1.14,0,0,0-.89.35,1.47,1.47,0,0,0-.31,1v.92a1.49,1.49,0,0,0,.31,1,1.11,1.11,0,0,0,.89.36A1.12,1.12,0,0,0,30.26,96.54Z"/><path class="cls-2" d="M39.26,97.66a1.9,1.9,0,0,1-.83-.83,2.79,2.79,0,0,1-.28-1.31V94.6a2.73,2.73,0,0,1,.28-1.29,1.88,1.88,0,0,1,.83-.82,2.72,2.72,0,0,1,1.3-.28,3.12,3.12,0,0,1,.82.1,2.67,2.67,0,0,1,.69.3,2.16,2.16,0,0,1,.51.49l-.79.71a1.59,1.59,0,0,0-1.22-.56,1.33,1.33,0,0,0-1,.35,1.38,1.38,0,0,0-.35,1v.92a1.42,1.42,0,0,0,.35,1,1.3,1.3,0,0,0,1,.36,1.41,1.41,0,0,0,.67-.16,1.65,1.65,0,0,0,.55-.44l.79.77a2,2,0,0,1-.52.47,2.4,2.4,0,0,1-.69.3,3.1,3.1,0,0,1-.81.1A2.72,2.72,0,0,1,39.26,97.66Z"/><path class="cls-2" d="M49.83,95.68a1.25,1.25,0,0,0,.3.9,1.11,1.11,0,0,0,.84.32,1.14,1.14,0,0,0,.83-.28,1.06,1.06,0,0,0,.3-.81L52.17,97a1.5,1.5,0,0,1-.56.69,1.55,1.55,0,0,1-1,.28,1.8,1.8,0,0,1-1.43-.59,2.56,2.56,0,0,1-.5-1.67V92.29h1.1Zm2.27-3.39h1.09v5.57H52.1Z"/><path class="cls-2" d="M61,97.85a4.08,4.08,0,0,1-.81-.29,3,3,0,0,1-.69-.49l.65-.8a4,4,0,0,0,.89.52,2.54,2.54,0,0,0,.88.17,1.94,1.94,0,0,0,1-.2.67.67,0,0,0,.32-.61.49.49,0,0,0-.17-.4,1,1,0,0,0-.44-.18c-.18,0-.43-.06-.74-.08h-.27a4.14,4.14,0,0,1-.92-.16,1.24,1.24,0,0,1-.63-.43,1.47,1.47,0,0,1-.25-.91A1.85,1.85,0,0,1,60,93a1.51,1.51,0,0,1,.72-.59,3.21,3.21,0,0,1,1.2-.19,3.71,3.71,0,0,1,.83.08,3.36,3.36,0,0,1,.76.24,3,3,0,0,1,.69.4l-.66.8a3.75,3.75,0,0,0-.83-.41,2.47,2.47,0,0,0-.79-.13,1.49,1.49,0,0,0-.84.19.67.67,0,0,0-.28.57.4.4,0,0,0,.16.34.84.84,0,0,0,.4.15,4.88,4.88,0,0,0,.69.06h.2a5,5,0,0,1,1,.16,1.34,1.34,0,0,1,.69.46,1.58,1.58,0,0,1,.28,1,1.79,1.79,0,0,1-.26,1,1.55,1.55,0,0,1-.77.59,3.54,3.54,0,0,1-1.31.2A4.49,4.49,0,0,1,61,97.85Z"/><path class="cls-2" d="M71.68,97.65a1.85,1.85,0,0,1-.83-.85,2.85,2.85,0,0,1-.29-1.36v-.62a3.39,3.39,0,0,1,.27-1.42,2.06,2.06,0,0,1,.81-.89,2.5,2.5,0,0,1,1.26-.3,2,2,0,0,1,1.2.35,2.09,2.09,0,0,1,.75,1,4.24,4.24,0,0,1,.26,1.59v.36H71.35v-.88h2.72a1.91,1.91,0,0,0-.35-1.06,1,1,0,0,0-.82-.38,1.2,1.2,0,0,0-1,.41,1.75,1.75,0,0,0-.34,1.16v.71A1.43,1.43,0,0,0,72,96.53a1.35,1.35,0,0,0,1,.37,1.72,1.72,0,0,0,.66-.13,1.93,1.93,0,0,0,.59-.38l.72.72a3.12,3.12,0,0,1-.93.61,2.59,2.59,0,0,1-1,.22A2.74,2.74,0,0,1,71.68,97.65Z"/><path class="cls-2" d="M82.42,97.69a1.62,1.62,0,0,1-.66-.77,3,3,0,0,1-.22-1.23V94.46a3,3,0,0,1,.22-1.23,1.58,1.58,0,0,1,.64-.77,1.84,1.84,0,0,1,1-.27,1.72,1.72,0,0,1,.91.26,1.92,1.92,0,0,1,.66.72l-.11,1.14a1.41,1.41,0,0,0-.13-.61,1,1,0,0,0-.37-.38,1.26,1.26,0,0,0-.6-.13,1.05,1.05,0,0,0-.84.34,1.37,1.37,0,0,0-.3,1v1.21a1.34,1.34,0,0,0,.3.94,1.08,1.08,0,0,0,.84.33,1.27,1.27,0,0,0,.6-.14.93.93,0,0,0,.37-.39,1.46,1.46,0,0,0,.13-.62L84.94,97a1.63,1.63,0,0,1-.54.69,1.53,1.53,0,0,1-.93.28A2,2,0,0,1,82.42,97.69Zm2.45-7.64H86v7.81H84.87Z"/><path class="cls-2" d="M101.64,97.66a1.9,1.9,0,0,1-.78-.83,3,3,0,0,1-.28-1.32v-.9a2.87,2.87,0,0,1,.28-1.3,1.88,1.88,0,0,1,.78-.82,2.55,2.55,0,0,1,1.24-.28,2.5,2.5,0,0,1,1.24.28,1.84,1.84,0,0,1,.79.82,2.87,2.87,0,0,1,.27,1.3v.92a2.87,2.87,0,0,1-.27,1.3,1.87,1.87,0,0,1-.79.83,2.5,2.5,0,0,1-1.24.28A2.55,2.55,0,0,1,101.64,97.66Zm2.13-1.12a1.49,1.49,0,0,0,.32-1v-.92a1.47,1.47,0,0,0-.32-1,1.14,1.14,0,0,0-.89-.35,1.15,1.15,0,0,0-.89.35,1.47,1.47,0,0,0-.31,1v.92a1.49,1.49,0,0,0,.31,1,1.12,1.12,0,0,0,.89.36A1.11,1.11,0,0,0,103.77,96.54Z"/><path class="cls-2" d="M111.82,92.29h1.1v5.57h-1.1Zm3.39,2.19a1.3,1.3,0,0,0-.31-.91,1.34,1.34,0,0,0-1.69,0,1.09,1.09,0,0,0-.29.8l-.11-1.07a1.91,1.91,0,0,1,.67-.78,1.65,1.65,0,0,1,.92-.27,1.7,1.7,0,0,1,1.4.59,2.48,2.48,0,0,1,.5,1.68v3.38h-1.09Z"/><path class="cls-2" d="M130.49,92.29h1.12l1.71,4.84-.6,1.19Zm4.94,0-2.37,6.88a1.72,1.72,0,0,1-.34.6,1.12,1.12,0,0,1-.52.32,2.62,2.62,0,0,1-.75.1h-.22v-1h.22a.89.89,0,0,0,.49-.13,1,1,0,0,0,.31-.42l2.06-6.3Z"/><path class="cls-2" d="M142.27,97.66a1.87,1.87,0,0,1-.79-.83,3,3,0,0,1-.27-1.32v-.9a2.87,2.87,0,0,1,.27-1.3,1.84,1.84,0,0,1,.79-.82,2.89,2.89,0,0,1,2.48,0,1.9,1.9,0,0,1,.79.82,2.87,2.87,0,0,1,.27,1.3v.92a2.87,2.87,0,0,1-.27,1.3,1.92,1.92,0,0,1-.79.83,2.89,2.89,0,0,1-2.48,0Zm2.13-1.12a1.49,1.49,0,0,0,.31-1v-.92a1.47,1.47,0,0,0-.31-1,1.31,1.31,0,0,0-1.78,0,1.47,1.47,0,0,0-.31,1v.92a1.49,1.49,0,0,0,.31,1,1.28,1.28,0,0,0,1.78,0Z"/><path class="cls-2" d="M153.41,95.68a1.25,1.25,0,0,0,.3.9,1.11,1.11,0,0,0,.84.32,1.14,1.14,0,0,0,.83-.28,1.06,1.06,0,0,0,.3-.81l.07,1.16a1.5,1.5,0,0,1-.56.69,1.55,1.55,0,0,1-.95.28,1.8,1.8,0,0,1-1.43-.59,2.56,2.56,0,0,1-.5-1.67V92.29h1.1Zm2.27-3.39h1.09v5.57h-1.09Z"/></svg>