<svg id="Layer_1" data-name="Layer 1" xmlns="http://www.w3.org/2000/svg" viewBox="0 0 170.08 170.08"><defs><style>.cls-1{font-size:14.76px;font-family:Cocon-Regular, Cocon;}.cls-1,.cls-4{fill:#231f20;}.cls-2,.cls-3{fill:#de7026;}.cls-2{letter-spacing:0em;}</style></defs><text class="cls-1" transform="translate(24.12 108.01)">pointex<tspan class="cls-2" x="54.27" y="0">solutions</tspan></text><path d="M61.7,95.08s1.88-5.83,8.5-15.25c5.43-7.74,14.36-11.72,14.36-11.72l-19.26-19s-4.14,1.32-8.22,6.81a39.09,39.09,0,0,0-4.88,8.6s1.83-2.77,7.19-7.45a70.67,70.67,0,0,1,5.73-4.14L78.4,67.09a40,40,0,0,0-9.33,10.1A58.6,58.6,0,0,0,61.7,95.08Z"/><path class="cls-3" d="M71.85,52.32a19,19,0,0,1,3.3-1.44c1.45-.47,3.5-.87,3.5-.87L99.2,71.45s-8.41,1-19.78,7.45-15.15,14-15.15,14,4.88-10,12.33-15.4a61.65,61.65,0,0,1,15.41-8L77.24,53.6l-3.11.71Z"/><path class="cls-4" d="M89.44,58.35l4.23-.77,14.26,17.08s-13.83.75-21.38,3.85C79.48,81.41,70.18,89.3,70.18,89.3S78.55,83,88,80.57c10.5-2.7,28.12-2.44,28.12-2.44L95.22,54s-2.89.35-4.37.67A39.06,39.06,0,0,0,87.13,56Z"/><path class="cls-4" d="M74.12,89.3s4.17-1.55,14.7-2.71a97.32,97.32,0,0,1,22.44.61l-6.59-7.36h-4.53L103,83s-11.13.72-16.69,2A94.09,94.09,0,0,0,74.12,89.3Z"/><path class="cls-3" d="M27.68,114H30v.76H27.68Zm.48-.62a1.27,1.27,0,0,1,.28-.91,1.12,1.12,0,0,1,.86-.3H30V113h-.64a.22.22,0,0,0-.2.1.46.46,0,0,0-.06.25v5.2h-.9Z"/><path class="cls-3" d="M35.66,118.36a1.48,1.48,0,0,1-.65-.68,2.39,2.39,0,0,1-.22-1.08v-.74A2.31,2.31,0,0,1,35,114.8a1.53,1.53,0,0,1,.65-.68,2.35,2.35,0,0,1,2,0,1.58,1.58,0,0,1,.65.68,2.44,2.44,0,0,1,.22,1.06v.76a2.52,2.52,0,0,1-.22,1.07,1.56,1.56,0,0,1-.65.67,2.27,2.27,0,0,1-2,0Zm1.74-.91a1.25,1.25,0,0,0,.26-.83v-.76a1.19,1.19,0,0,0-.26-.82.89.89,0,0,0-.73-.29.92.92,0,0,0-.73.29,1.18,1.18,0,0,0-.25.82v.76a1.25,1.25,0,0,0,.25.83,1,1,0,0,0,.73.29A.93.93,0,0,0,37.4,117.45Z"/><path class="cls-3" d="M44.78,118.36a1.54,1.54,0,0,1-.68-.68,2.32,2.32,0,0,1-.23-1.07v-.75a2.35,2.35,0,0,1,.23-1.07,1.63,1.63,0,0,1,.68-.67,2.35,2.35,0,0,1,1.07-.23,2.41,2.41,0,0,1,.67.09,1.83,1.83,0,0,1,.57.25,1.52,1.52,0,0,1,.41.39l-.64.58a1.3,1.3,0,0,0-1-.45,1.07,1.07,0,0,0-.81.29,1.1,1.1,0,0,0-.28.82v.75a1.17,1.17,0,0,0,.28.84,1.1,1.1,0,0,0,.81.29,1.2,1.2,0,0,0,.55-.13,1.28,1.28,0,0,0,.45-.36l.64.63a1.57,1.57,0,0,1-.42.39,2.08,2.08,0,0,1-.57.24,2.39,2.39,0,0,1-.66.09A2.23,2.23,0,0,1,44.78,118.36Z"/><path class="cls-3" d="M53.45,116.74a1.06,1.06,0,0,0,.24.74.94.94,0,0,0,.69.26,1,1,0,0,0,.69-.23.9.9,0,0,0,.24-.67l.06,1a1.39,1.39,0,0,1-.46.57,1.31,1.31,0,0,1-.78.23,1.48,1.48,0,0,1-1.17-.49,2.09,2.09,0,0,1-.41-1.37V114h.9ZM55.31,114h.89v4.57h-.89Z"/><path class="cls-3" d="M62.59,118.52a3.44,3.44,0,0,1-.66-.24,2.54,2.54,0,0,1-.57-.4l.53-.65a3.48,3.48,0,0,0,.74.42,2,2,0,0,0,.72.14,1.54,1.54,0,0,0,.8-.17.53.53,0,0,0,.27-.49.37.37,0,0,0-.15-.33,1,1,0,0,0-.36-.15l-.61-.07h-.22a3.63,3.63,0,0,1-.75-.13.93.93,0,0,1-.51-.36,1.14,1.14,0,0,1-.21-.74,1.57,1.57,0,0,1,.2-.81,1.24,1.24,0,0,1,.59-.48,2.75,2.75,0,0,1,1-.16,3,3,0,0,1,.68.07,3.19,3.19,0,0,1,.62.19,3.25,3.25,0,0,1,.57.33l-.54.66a2.82,2.82,0,0,0-.68-.33,1.89,1.89,0,0,0-.65-.11,1.25,1.25,0,0,0-.68.15.52.52,0,0,0-.23.47.31.31,0,0,0,.13.28.71.71,0,0,0,.32.12l.57.06h.17a3.52,3.52,0,0,1,.81.13,1.09,1.09,0,0,1,.57.38,1.32,1.32,0,0,1,.23.83,1.49,1.49,0,0,1-.21.82,1.33,1.33,0,0,1-.64.48,3,3,0,0,1-1.07.17A3.69,3.69,0,0,1,62.59,118.52Z"/><path class="cls-3" d="M71.37,118.36a1.61,1.61,0,0,1-.69-.7,2.53,2.53,0,0,1-.23-1.11V116a2.73,2.73,0,0,1,.22-1.16,1.62,1.62,0,0,1,.66-.73,2.13,2.13,0,0,1,1-.25,1.67,1.67,0,0,1,1,.29A1.72,1.72,0,0,1,74,115a3.58,3.58,0,0,1,.21,1.3v.29H71.1v-.72h2.23A1.63,1.63,0,0,0,73,115a.84.84,0,0,0-.67-.31,1,1,0,0,0-.79.34,1.41,1.41,0,0,0-.28.94v.59a1.21,1.21,0,0,0,.3.87,1.14,1.14,0,0,0,.85.3,1.49,1.49,0,0,0,.54-.11,1.52,1.52,0,0,0,.48-.31l.59.59a2.42,2.42,0,0,1-.76.51,2.13,2.13,0,0,1-.85.18A2.27,2.27,0,0,1,71.37,118.36Z"/><path class="cls-3" d="M80.17,118.39a1.49,1.49,0,0,1-.54-.64,2.48,2.48,0,0,1-.18-1v-1a2.57,2.57,0,0,1,.18-1,1.33,1.33,0,0,1,.53-.63,1.47,1.47,0,0,1,.83-.22,1.38,1.38,0,0,1,.74.21,1.62,1.62,0,0,1,.54.59l-.09.94a1.09,1.09,0,0,0-.11-.5.69.69,0,0,0-.3-.31,1,1,0,0,0-.49-.11.86.86,0,0,0-.69.28,1.13,1.13,0,0,0-.24.77v1a1.13,1.13,0,0,0,.24.77.89.89,0,0,0,.69.27,1.07,1.07,0,0,0,.49-.11.8.8,0,0,0,.3-.33,1.12,1.12,0,0,0,.11-.5l.06,1a1.24,1.24,0,0,1-1.21.8A1.6,1.6,0,0,1,80.17,118.39Zm2-6.26h.9v6.4h-.9Z"/><path class="cls-3" d="M95.94,118.36a1.48,1.48,0,0,1-.65-.68,2.39,2.39,0,0,1-.22-1.08v-.74a2.31,2.31,0,0,1,.22-1.06,1.53,1.53,0,0,1,.65-.68,2.35,2.35,0,0,1,2,0,1.58,1.58,0,0,1,.65.68,2.44,2.44,0,0,1,.22,1.06v.76a2.52,2.52,0,0,1-.22,1.07,1.56,1.56,0,0,1-.65.67,2.27,2.27,0,0,1-2,0Zm1.74-.91a1.25,1.25,0,0,0,.26-.83v-.76a1.19,1.19,0,0,0-.26-.82.89.89,0,0,0-.73-.29.92.92,0,0,0-.73.29,1.18,1.18,0,0,0-.25.82v.76a1.25,1.25,0,0,0,.25.83,1,1,0,0,0,.73.29A.93.93,0,0,0,97.68,117.45Z"/><path class="cls-3" d="M104.28,114h.9v4.57h-.9Zm2.78,1.8a1.05,1.05,0,0,0-.26-.75.89.89,0,0,0-.7-.26.92.92,0,0,0-.68.23.88.88,0,0,0-.24.66l-.09-.89a1.62,1.62,0,0,1,.55-.63,1.35,1.35,0,0,1,.75-.23,1.43,1.43,0,0,1,1.16.49,2.07,2.07,0,0,1,.4,1.37v2.78h-.89Z"/><path class="cls-3" d="M119.59,114h.92l1.4,4-.5,1Zm4,0-2,5.64a1.22,1.22,0,0,1-.28.49.93.93,0,0,1-.42.27,2.15,2.15,0,0,1-.61.08h-.19v-.87h.19a.64.64,0,0,0,.39-.1.76.76,0,0,0,.26-.35l1.69-5.16Z"/><path class="cls-3" d="M129.25,118.36a1.48,1.48,0,0,1-.65-.68,2.39,2.39,0,0,1-.22-1.08v-.74a2.31,2.31,0,0,1,.22-1.06,1.53,1.53,0,0,1,.65-.68,2.35,2.35,0,0,1,2,0,1.58,1.58,0,0,1,.65.68,2.44,2.44,0,0,1,.22,1.06v.76a2.52,2.52,0,0,1-.22,1.07,1.56,1.56,0,0,1-.65.67,2.27,2.27,0,0,1-2,0Zm1.74-.91a1.25,1.25,0,0,0,.26-.83v-.76A1.19,1.19,0,0,0,131,115a.89.89,0,0,0-.73-.29.92.92,0,0,0-.73.29,1.18,1.18,0,0,0-.25.82v.76a1.25,1.25,0,0,0,.25.83,1,1,0,0,0,.73.29A.93.93,0,0,0,131,117.45Z"/><path class="cls-3" d="M138.38,116.74a1,1,0,0,0,.25.74.9.9,0,0,0,.68.26,1,1,0,0,0,.69-.23.9.9,0,0,0,.24-.67l.06,1a1.39,1.39,0,0,1-.46.57,1.31,1.31,0,0,1-.78.23,1.48,1.48,0,0,1-1.17-.49,2.09,2.09,0,0,1-.41-1.37V114h.9Zm1.86-2.78h.89v4.57h-.89Z"/></svg>